# xmcd
#
# Track frame offsets:
#	150
#	21539
#	41485
#	62066
#	88659
#	109438
#	132100
#	149318
#	166139
#	193110
#	219772
#	233460
#
# Disc length: 3420 seconds
#
# Revision: 4
# Processed by: cddbd v1.5.2PL0 Copyright (c) Steve Scherf et al.
# Submitted via: audiograbber 1.83.01
#
DISCID=a30d5a0c
DTITLE=Toscho - Serious Fun (Surround Sound)
DYEAR=1996
DGENRE=Blues
TTITLE0=Dinner At Woolfie's
TTITLE1=The Blues
TTITLE2=Something You've Got
TTITLE3=Oh Lord
TTITLE4=Route 66
TTITLE5=All My Tears Went By
TTITLE6=Goin' To Miami
TTITLE7=Let Me Love You
TTITLE8=Mr. Cleanhead Blues
TTITLE9=Saturday Nite Fish Fry
TTITLE10=Mara's Dream
TTITLE11=Spinning Wheel
EXTD=
EXTT0=
EXTT1=
EXTT2=
EXTT3=
EXTT4=
EXTT5=
EXTT6=
EXTT7=
EXTT8=
EXTT9=
EXTT10=
EXTT11=
PLAYORDER=
